# xmcd
#
# Track frame offsets:
#	150
#	33650
#	69932
#	106687
#	135332
#	154865
#	179667
#
# Disc length: 2765 seconds
#
# Revision: 0
# Processed by: cddbd v1.4PL0 Copyright (c) Steve Scherf et al.
# Submitted via: EasyCDDAExtractor 4.6.9.1
#
DISCID=550acb07
DTITLE=Ry Cooder&David Lindley - live in Osaka 2
DYEAR=1979
DGENRE=Blues
TTITLE0=travellin man
TTITLE1=if walls could talk
TTITLE2=how can a poor man stand such times and live
TTITLE3=jesus on the mainline
TTITLE4=the tattler
TTITLE5=blue suede shoes
TTITLE6=burgeois blues
EXTD=
EXTT0=
EXTT1=
EXTT2=
EXTT3=
EXTT4=
EXTT5=
EXTT6=
PLAYORDER=
